# xmcd
#
# Track frame offsets:
#	150
#	11492
#	23720
#	36056
#	47230
#	62785
#	75706
#	86349
#	102166
#	114053
#	123029
#	138457
#	151608
#	162336
#	176091
#
# Disc length: 2478 seconds
#
# Revision: 1
# Processed by: cddbd v1.5.1PL2 Copyright (c) Steve Scherf et al.
# Submitted via: audiograbber 1.82.02
#
DISCID=aa09ac0f
DTITLE=Hot Club of Cowtown - Tall Tales
DYEAR=1900
DGENRE=Western Swing
TTITLE0=Draggin' The Bow
TTITLE1=Emily
TTITLE2=Darling You And I Are Through
TTITLE3=I Can't Tame Wild Women
TTITLE4=When I Lost You
TTITLE5=You Can't Take It With You
TTITLE6=Wildcat
TTITLE7=Always and Always
TTITLE8=I Laugh When I Think How I Cried Over You
TTITLE9=Joe Bob Rag
TTITLE10=There'll Be Some Changes Made
TTITLE11=Red Hot Mama
TTITLE12=Bonaparte's Retreat
TTITLE13=Polkadots and Moonbeams
TTITLE14=Sally Goodin
EXTD=
EXTT0=
EXTT1=
EXTT2=
EXTT3=
EXTT4=
EXTT5=
EXTT6=
EXTT7=
EXTT8=
EXTT9=
EXTT10=
EXTT11=
EXTT12=
EXTT13=
EXTT14=
PLAYORDER=
